# xmcd
#
# Track frame offsets:
#	150
#	71263
#	97330
#	147720
#	202550
#	237758
#
# Disc length: 3777 seconds
#
# Revision: 1
# Processed by: cddbd v1.5.1PL0 Copyright (c) Steve Scherf et al.
# Submitted via: CDex 1.50Beta5
#
DISCID=500ebf06
DTITLE=ARFRED BRENDEL - シューマン:ピアノ協奏曲、幻想曲
DYEAR=1900
DGENRE=Classical
TTITLE0=協奏曲 1. Allegro affettuoso
TTITLE1=協奏曲 2. Intermezzo (Andantino grazioso) -
TTITLE2=協奏曲 3. Allegro vivace
TTITLE3=幻想曲 終始幻想的に、そして情熱的に演奏すること-伝説の音調で
TTITLE4=幻想曲 中庸の速さで。終始エネルギッシュにやや遅く-より速めに
TTITLE5=幻想曲 ゆっくりと演奏すること。常に穏やかさを保って-やや速めに
EXTD=
EXTT0=
EXTT1=
EXTT2=
EXTT3=
EXTT4=
EXTT5=
PLAYORDER=
